<mxfile host="app.diagrams.net" modified="2021-08-19T02:37:01.664Z" agent="5.0 (Macintosh; Intel Mac OS X 10_15_7) AppleWebKit/537.36 (KHTML, like Gecko) Chrome/92.0.4515.131 Safari/537.36" etag="yRvUHOWvOnLB5LQ0Di_A" version="14.9.7" type="github">
  <diagram id="uBU29dtC3sSZjAvLH8uq" name="Page-1">
    <mxGraphModel dx="946" dy="509" grid="1" gridSize="10" guides="1" tooltips="1" connect="1" arrows="1" fold="1" page="1" pageScale="1" pageWidth="827" pageHeight="1169" math="0" shadow="0">
      <root>
        <mxCell id="0" />
        <mxCell id="1" parent="0" />
        <mxCell id="SRbSLLtSHwvRaP8xoBe--1" value="permission_dept&lt;br&gt;()" style="rounded=1;whiteSpace=wrap;html=1;" vertex="1" parent="1">
          <mxGeometry x="180" y="110" width="120" height="60" as="geometry" />
        </mxCell>
        <mxCell id="SRbSLLtSHwvRaP8xoBe--2" value="premission_userprofile&lt;br&gt;()" style="rounded=1;whiteSpace=wrap;html=1;" vertex="1" parent="1">
          <mxGeometry x="354" y="110" width="120" height="60" as="geometry" />
        </mxCell>
      </root>
    </mxGraphModel>
  </diagram>
</mxfile>
